<svg width="100" height="100" viewBox="0 0 100 100" xmlns="http://www.w3.org/2000/svg">
  <!-- Futuristic robot head -->
  <circle cx="50" cy="30" r="15" fill="none" stroke="#4cc9f0" stroke-width="3"/>
  <circle cx="50" cy="30" r="12" fill="none" stroke="#4361ee" stroke-width="1" stroke-dasharray="3,3"/>

  <!-- Futuristic robot body -->
  <path d="M40 45 L35 65 L45 75 L55 75 L65 65 L60 45 Z" fill="none" stroke="#4cc9f0" stroke-width="3"/>

  <!-- Futuristic arms -->
  <path d="M35 55 Q25 60 20 65" fill="none" stroke="#4cc9f0" stroke-width="2" stroke-linecap="round"/>
  <path d="M65 55 Q75 60 80 65" fill="none" stroke="#4cc9f0" stroke-width="2" stroke-linecap="round"/>

  <!-- Futuristic legs -->
  <path d="M45 75 Q40 85 35 90" fill="none" stroke="#4cc9f0" stroke-width="2" stroke-linecap="round"/>
  <path d="M55 75 Q60 85 65 90" fill="none" stroke="#4cc9f0" stroke-width="2" stroke-linecap="round"/>

  <!-- AI neural network pattern -->
  <path d="M70 15 L75 20 L70 25 L65 20 Z" fill="none" stroke="#f72585" stroke-width="1.5"/>
  <path d="M80 10 L85 15 L80 20 L75 15 Z" fill="none" stroke="#f72585" stroke-width="1.5"/>
  <path d="M60 10 L65 15 L60 20 L55 15 Z" fill="none" stroke="#f72585" stroke-width="1.5"/>

  <!-- Connection lines -->
  <line x1="75" y1="15" x2="80" y2="10" stroke="#4cc9f0" stroke-width="1" stroke-dasharray="2,2"/>
  <line x1="65" y1="15" x2="70" y2="10" stroke="#4cc9f0" stroke-width="1" stroke-dasharray="2,2"/>

  <!-- Futuristic highlights -->
  <circle cx="50" cy="25" r="2" fill="#f72585"/>
  <circle cx="45" cy="50" r="1" fill="#4cc9f0"/>
  <circle cx="55" cy="50" r="1" fill="#4cc9f0"/>
</svg>